<svg width="609" height="443" viewBox="0 0 609 443" fill="none" xmlns="http://www.w3.org/2000/svg">
<g clip-path="url(#clip0)">
<path d="M584.33 365.323C583.667 390.066 579.523 414.592 572.018 438.178C571.847 438.726 571.667 439.265 571.487 439.812H525.542C525.591 439.322 525.64 438.775 525.689 438.178C528.753 402.96 546.415 188.609 525.297 151.952C527.143 154.926 587.891 253.417 584.33 365.323Z" fill="#E2E2E9"/>
<path d="M572.345 441.366C571.961 441.913 571.561 442.461 571.152 443H536.686C536.947 442.534 537.249 441.987 537.601 441.366C543.295 431.089 560.148 400.363 575.793 368.511C592.606 334.28 608.03 298.751 606.731 285.893C607.131 288.793 618.764 377.203 572.345 441.366Z" fill="#E2E2E9"/>
<path d="M45.2205 406.068C45.5457 418.216 47.5805 430.258 51.2651 441.839C51.3493 442.107 51.4376 442.372 51.5258 442.641H74.0837C74.0597 442.4 74.0356 442.131 74.0115 441.839C72.5074 424.547 63.8356 319.306 74.2041 301.309C73.2976 302.769 43.4717 351.125 45.2205 406.068Z" fill="#E2E2E9"/>
<path d="M46.9124 441.838C47.1009 442.107 47.2974 442.376 47.498 442.641H64.4205C64.2921 442.412 64.1437 442.143 63.9712 441.838C61.1755 436.793 52.9008 421.707 45.2197 406.068C36.9651 389.262 29.3923 371.818 30.03 365.505C29.8335 366.929 24.1218 410.336 46.9124 441.838Z" fill="#E2E2E9"/>
<path d="M476.762 376.796C476.762 376.796 476.762 376.796 476.762 376.796C477.653 376.797 478.507 377.152 479.137 377.782C479.767 378.412 480.121 379.266 480.123 380.156C480.123 380.156 480.123 380.157 480.123 380.157L476.762 376.796Z" fill="#E2E2E9" stroke="white" stroke-width="2"/>
<path d="M277.853 424.89C287.664 424.89 295.618 416.936 295.618 407.125C295.618 397.314 287.664 389.36 277.853 389.36C268.041 389.36 260.088 397.314 260.088 407.125C260.088 416.936 268.041 424.89 277.853 424.89Z" fill="#E2E2E9"/>
<path d="M318.882 395.281C318.097 395.283 317.345 395.595 316.791 396.15C316.237 396.705 315.926 397.458 315.926 398.242C315.926 399.026 316.237 399.779 316.791 400.334C317.345 400.889 318.097 401.202 318.882 401.203H458.462C459.248 401.203 460.001 400.891 460.556 400.336C461.111 399.78 461.423 399.027 461.423 398.242C461.423 397.457 461.111 396.704 460.556 396.148C460.001 395.593 459.248 395.281 458.462 395.281H318.882Z" fill="#E2E2E9"/>
<path d="M318.881 413.046C318.095 413.046 317.342 413.358 316.787 413.913C316.232 414.468 315.92 415.221 315.92 416.007C315.92 416.792 316.232 417.545 316.787 418.1C317.342 418.656 318.095 418.968 318.881 418.968H378.943C379.728 418.968 380.481 418.656 381.036 418.1C381.592 417.545 381.904 416.792 381.904 416.007C381.904 415.221 381.592 414.468 381.036 413.913C380.481 413.358 379.728 413.046 378.943 413.046H318.881Z" fill="#E2E2E9"/>
<path d="M285.362 290.2H520.86C520.861 290.2 520.861 290.2 520.861 290.2H285.362Z" fill="#E2E2E9" stroke="white" stroke-width="2"/>
<path d="M321.952 338.293C331.764 338.293 339.717 330.34 339.717 320.529C339.717 310.717 331.764 302.764 321.952 302.764C312.141 302.764 304.188 310.717 304.188 320.529C304.188 330.34 312.141 338.293 321.952 338.293Z" fill="#E2E2E9"/>
<path d="M362.981 308.685C362.197 308.686 361.445 308.998 360.891 309.554C360.337 310.109 360.025 310.861 360.025 311.645C360.025 312.43 360.337 313.182 360.891 313.737C361.445 314.292 362.197 314.605 362.981 314.606H502.562C503.347 314.606 504.101 314.294 504.656 313.739C505.211 313.184 505.523 312.431 505.523 311.645C505.523 310.86 505.211 310.107 504.656 309.552C504.101 308.997 503.347 308.685 502.562 308.685H362.981Z" fill="#E2E2E9"/>
<path d="M362.98 326.449C362.195 326.449 361.442 326.761 360.887 327.316C360.331 327.872 360.02 328.625 360.02 329.41C360.02 330.195 360.331 330.948 360.887 331.504C361.442 332.059 362.195 332.371 362.98 332.371H423.042C423.828 332.371 424.581 332.059 425.136 331.504C425.691 330.948 426.003 330.195 426.003 329.41C426.003 328.625 425.691 327.872 425.136 327.316C424.581 326.761 423.828 326.449 423.042 326.449H362.98Z" fill="#E2E2E9"/>
<path d="M254.332 1H489.831C489.831 1 489.832 1 489.832 1H254.332Z" fill="#E2E2E9" stroke="white" stroke-width="2"/>
<path d="M290.923 192.059C300.734 192.059 308.688 184.105 308.688 174.294C308.688 164.483 300.734 156.529 290.923 156.529C281.112 156.529 273.158 164.483 273.158 174.294C273.158 184.105 281.112 192.059 290.923 192.059Z" fill="#E2E2E9"/>
<path d="M331.953 162.451C331.168 162.451 330.415 162.763 329.859 163.318C329.304 163.874 328.992 164.627 328.992 165.412C328.992 166.197 329.304 166.95 329.859 167.506C330.415 168.061 331.168 168.373 331.953 168.373H471.534C472.319 168.373 473.072 168.061 473.627 167.506C474.183 166.95 474.495 166.197 474.495 165.412C474.495 164.627 474.183 163.874 473.627 163.318C473.072 162.763 472.319 162.451 471.534 162.451H331.953Z" fill="#E2E2E9"/>
<path d="M331.953 180.216C331.168 180.216 330.415 180.528 329.859 181.083C329.304 181.638 328.992 182.391 328.992 183.177C328.992 183.962 329.304 184.715 329.859 185.27C330.415 185.825 331.168 186.137 331.953 186.137H392.015C392.8 186.137 393.553 185.825 394.109 185.27C394.664 184.715 394.976 183.962 394.976 183.177C394.976 182.391 394.664 181.638 394.109 181.083C393.553 180.528 392.8 180.216 392.015 180.216H331.953Z" fill="#E2E2E9"/>
<path d="M104.036 231.027L106.632 251.697C106.843 253.379 107.446 254.989 108.391 256.397C109.336 257.806 110.597 258.973 112.074 259.806C113.551 260.64 115.203 261.116 116.897 261.196C118.591 261.277 120.28 260.96 121.83 260.27V260.27C123.204 259.659 124.436 258.769 125.449 257.657C126.461 256.545 127.232 255.234 127.711 253.809C128.191 252.384 128.37 250.874 128.236 249.376C128.102 247.878 127.659 246.424 126.934 245.106L116.017 225.256L112.447 139.909L89.3613 145.293L104.036 231.027Z" fill="#FFB8B8"/>
<path d="M190.505 422.625L172.532 424.259L161.912 276.391L161.503 314.379L122.29 418.949L106.768 406.695L132.501 302.534L120.247 244.53H200.308L190.505 422.625Z" fill="#65CBB2"/>
<path d="M208.326 442.609L174.915 441.793C173.554 441.893 172.187 441.683 170.918 441.181C169.649 440.678 168.51 439.894 167.586 438.889C166.662 437.884 165.978 436.682 165.584 435.375C165.19 434.068 165.097 432.689 165.312 431.341L166.681 422.738C166.942 421.097 167.751 419.592 168.976 418.469C170.2 417.346 171.769 416.67 173.426 416.552V416.552C179.129 422.454 185.027 421.582 191.082 415.289L204.855 429.261L206.912 428.985C208.539 428.766 210.191 429.139 211.566 430.035C212.941 430.932 213.949 432.292 214.406 433.869C214.69 434.849 214.751 435.88 214.586 436.886C214.42 437.893 214.032 438.85 213.45 439.688C212.867 440.525 212.105 441.222 211.218 441.728C210.332 442.233 209.344 442.534 208.326 442.609V442.609Z" fill="#FD558F"/>
<path d="M132.223 441.503L98.7166 428.862C97.3512 428.346 96.1199 427.529 95.115 426.471C94.1101 425.413 93.3576 424.141 92.9136 422.751C92.4697 421.36 92.346 419.888 92.5517 418.443C92.7573 416.998 93.2871 415.618 94.1013 414.407L99.2966 406.679C100.288 405.205 101.748 404.11 103.441 403.571C105.134 403.032 106.959 403.082 108.62 403.712V403.712C111.497 411.999 117.609 413.806 126.311 410.424L134.857 426.998L136.976 427.654C138.652 428.174 140.086 429.278 141.017 430.765C141.948 432.253 142.314 434.025 142.048 435.76C141.883 436.838 141.479 437.866 140.866 438.768C140.253 439.67 139.446 440.423 138.505 440.974C137.563 441.524 136.511 441.857 135.424 441.949C134.337 442.041 133.243 441.888 132.223 441.503Z" fill="#FD558F"/>
<path d="M161.911 59.9003C173.641 59.9003 183.151 50.3905 183.151 38.6596C183.151 26.9287 173.641 17.4189 161.911 17.4189C150.18 17.4189 140.67 26.9287 140.67 38.6596C140.67 50.3905 150.18 59.9003 161.911 59.9003Z" fill="#FFB8B8"/>
<path d="M164.362 77.8725L127.6 77.0555C137.701 65.8795 143.837 54.2208 144.756 41.9268H164.362V77.8725Z" fill="#FFB8B8"/>
<path d="M202.759 255.967C168.057 247.064 135.496 241.062 115.346 251.883C118.874 214.784 114.793 167.427 102.683 117.932C98.7504 101.855 101.418 87.3688 115.754 79.0981L134.952 68.0693L164.362 68.8863L179.707 77.3756C187.211 81.1251 193.286 87.2209 197.009 94.7374C200.733 102.254 201.902 110.78 200.338 119.021C192.094 162.407 196.549 209.233 202.759 255.967Z" fill="white"/>
<path d="M210.111 229.825L212.99 250.457C213.224 252.136 213.062 253.848 212.517 255.453C211.971 257.059 211.057 258.515 209.848 259.704C208.639 260.894 207.169 261.784 205.554 262.303C203.94 262.822 202.226 262.956 200.551 262.694V262.694C199.065 262.462 197.643 261.924 196.376 261.114C195.109 260.304 194.023 259.24 193.189 257.988C192.354 256.737 191.788 255.326 191.527 253.845C191.266 252.364 191.315 250.845 191.672 249.384L197.04 227.374L178.25 144.045L201.942 143.229L210.111 229.825Z" fill="#FFB8B8"/>
<path d="M123.514 152.215L85.1172 149.764C88.1172 111.992 96.6541 91.343 109.626 84.4082L123.514 100.747V152.215Z" fill="white"/>
<path d="M176.616 31.3073C169.132 28.9133 165.249 44.2578 154.15 53.7734C151.627 55.9365 145.331 47.5024 143.121 50.0971L139.546 39.2181C135.306 26.3107 142.947 12.2397 156.234 9.4036C156.587 9.32831 156.943 9.26074 157.302 9.20087C163.097 8.23541 169.044 9.44556 174.001 12.5988C178.958 15.752 182.575 20.6258 184.157 26.2838C184.265 26.6961 184.288 27.126 184.226 27.5476C184.163 27.9693 184.016 28.3738 183.792 28.7368C183.569 29.0998 183.274 29.4136 182.926 29.6595C182.577 29.9053 182.183 30.078 181.766 30.167L176.616 31.3073Z" fill="#FD558F"/>
<path d="M210.111 144.863L174.165 153.032L172.531 94.2119L192.955 95.0289L210.111 144.863Z" fill="white"/>
<path d="M603.088 441.366H0V443H603.088V441.366Z" fill="#3F3D56"/>
<path d="M545.783 139.866H310.283C309.127 139.864 308.018 139.405 307.201 138.587C306.383 137.769 305.923 136.661 305.922 135.505V32.1551C305.923 30.9988 306.383 29.8904 307.201 29.0728C308.018 28.2552 309.127 27.7953 310.283 27.7939H545.783C546.939 27.7953 548.048 28.2552 548.865 29.0728C549.683 29.8904 550.143 30.9988 550.144 32.1551V135.505C550.143 136.661 549.683 137.769 548.865 138.587C548.048 139.405 546.939 139.864 545.783 139.866Z" fill="white"/>
<path d="M358.243 63.8174C357.854 63.8167 357.468 63.8929 357.108 64.0414C356.749 64.1899 356.422 64.4079 356.146 64.6829C355.871 64.9579 355.652 65.2845 355.503 65.644C355.354 66.0035 355.277 66.389 355.277 66.7782C355.277 67.1674 355.354 67.5528 355.503 67.9124C355.652 68.2719 355.871 68.5986 356.146 68.8736C356.422 69.1486 356.749 69.3665 357.108 69.515C357.468 69.6635 357.854 69.7397 358.243 69.739H497.824C498.609 69.739 499.362 69.4271 499.918 68.8718C500.473 68.3166 500.785 67.5635 500.785 66.7782C500.785 65.9929 500.473 65.2399 499.918 64.6846C499.362 64.1293 498.609 63.8174 497.824 63.8174H358.243Z" fill="#30308B"/>
<path d="M358.243 80.9727C357.854 80.972 357.468 81.0481 357.108 81.1966C356.749 81.3451 356.422 81.5631 356.146 81.8381C355.871 82.1131 355.652 82.4397 355.503 82.7993C355.354 83.1588 355.277 83.5442 355.277 83.9335C355.277 84.3227 355.354 84.7081 355.503 85.0677C355.652 85.4272 355.871 85.7538 356.146 86.0288C356.422 86.3038 356.749 86.5218 357.108 86.6703C357.468 86.8188 357.854 86.895 358.243 86.8943H497.824C498.609 86.8943 499.362 86.5824 499.918 86.0271C500.473 85.4718 500.785 84.7187 500.785 83.9335C500.785 83.1482 500.473 82.3951 499.918 81.8399C499.362 81.2846 498.609 80.9727 497.824 80.9727H358.243Z" fill="#30308B"/>
<path d="M358.244 97.9209C357.459 97.9209 356.706 98.2328 356.15 98.7881C355.595 99.3433 355.283 100.096 355.283 100.882C355.283 101.667 355.595 102.42 356.15 102.975C356.706 103.531 357.459 103.842 358.244 103.842H418.306C419.091 103.842 419.844 103.531 420.4 102.975C420.955 102.42 421.267 101.667 421.267 100.882C421.267 100.096 420.955 99.3433 420.4 98.7881C419.844 98.2328 419.091 97.9209 418.306 97.9209H358.244Z" fill="#30308B"/>
</g>
<defs>
<clipPath id="clip0">
<rect width="608.312" height="443" fill="white"/>
</clipPath>
</defs>
</svg>
