<svg width="100" height="100" viewBox="0 0 100 100" fill="none" xmlns="http://www.w3.org/2000/svg">
<path d="M8.56 52.28L12.12 52.28" stroke="white" stroke-width="4"/>
<path d="M94 50.5C94 59.3013 91.3901 67.9049 86.5004 75.2229C81.6107 82.5409 74.6607 88.2445 66.5294 91.6126C58.3981 94.9807 49.4506 95.862 40.8185 94.1449C32.1863 92.4279 24.2572 88.1897 18.0337 81.9662C11.8103 75.7428 7.5721 67.8137 5.85505 59.1815C4.13801 50.5494 5.01926 41.6019 8.38736 33.4706C11.7555 25.3393 17.4591 18.3893 24.7771 13.4996C32.0951 8.60988 40.6987 6 49.5 6" stroke="white" stroke-width="8"/>
<rect x="41.8823" y="60.0042" width="48.9121" height="8.09091" transform="rotate(-45 41.8823 60.0042)" fill="white"/>
<rect x="33.3879" y="40.0376" width="28.22" height="8.10819" transform="rotate(45 33.3879 40.0376)" fill="white"/>
<path d="M47.72 91.44V87.88" stroke="white" stroke-width="4"/>
</svg>
